<svg width="723" height="671" viewBox="0 0 723 671" fill="none" xmlns="http://www.w3.org/2000/svg">
<g clip-path="url(#clip0)">
<path d="M358 670.023C555.718 670.023 716 659.278 716 646.023C716 632.768 555.718 622.023 358 622.023C160.282 622.023 0 632.768 0 646.023C0 659.278 160.282 670.023 358 670.023Z" fill="#3F3D56"/>
<path d="M364 384.023H352V391.023H364V384.023Z" fill="#3F3D56"/>
<path d="M388 384.023H376V391.023H388V384.023Z" fill="#3F3D56"/>
<path d="M412 384.023H400V391.023H412V384.023Z" fill="#3F3D56"/>
<path d="M436 384.023H424V391.023H436V384.023Z" fill="#3F3D56"/>
<path d="M460 384.023H448V391.023H460V384.023Z" fill="#3F3D56"/>
<path d="M484 384.023H472V391.023H484V384.023Z" fill="#3F3D56"/>
<path d="M508 384.023H496V391.023H508V384.023Z" fill="#3F3D56"/>
<path d="M532 384.023H520V391.023H532V384.023Z" fill="#3F3D56"/>
<path d="M556 384.023H544V391.023H556V384.023Z" fill="#3F3D56"/>
<path d="M580 384.023H568V391.023H580V384.023Z" fill="#3F3D56"/>
<path d="M604 384.023H592V391.023H604V384.023Z" fill="#3F3D56"/>
<path d="M631.5 388.523C631.5 426.714 616.329 463.341 589.323 490.347C562.318 517.352 525.691 532.523 487.5 532.523C449.309 532.523 412.682 517.352 385.677 490.347C358.671 463.341 343.5 426.714 343.5 388.523H631.5Z" fill="#3F3D56"/>
<path d="M624.54 389.443L532.94 116.403C550.867 110.375 569.807 107.941 588.676 109.239C607.545 110.537 625.973 115.542 642.906 123.968C659.84 132.393 674.946 144.075 687.361 158.343C699.776 172.612 709.256 189.188 715.26 207.123C716.23 210.013 717.11 212.923 717.89 215.833C727.319 251.216 722.914 288.862 705.573 321.113C688.232 353.363 659.256 377.797 624.54 389.443Z" fill="#3F3D56"/>
<path d="M628 411.023C637.941 411.023 646 402.964 646 393.023C646 383.082 637.941 375.023 628 375.023C618.059 375.023 610 383.082 610 393.023C610 402.964 618.059 411.023 628 411.023Z" fill="#3F3D56"/>
<path d="M445 426.023C443.674 426.023 442.403 426.55 441.465 427.488C440.527 428.425 440 429.697 440 431.023C440 432.349 440.527 433.621 441.465 434.559C442.403 435.497 443.674 436.023 445 436.023H531C532.327 436.023 533.598 435.497 534.536 434.559C535.474 433.621 536 432.349 536 431.023C536 429.697 535.474 428.425 534.536 427.488C533.598 426.55 532.327 426.023 531 426.023H445Z" fill="#FDB87D"/>
<path d="M607 649.023L589.094 649.685L524.584 510.95L540.906 503.361L607 649.023Z" fill="#3F3D56"/>
<path d="M368 649.023L385.906 649.685L450.416 510.95L434.094 503.361L368 649.023Z" fill="#3F3D56"/>
<path d="M562 569.023H414V579.023H562V569.023Z" fill="#3F3D56"/>
<path d="M536.601 111.306C535.898 111.306 535.205 111.471 534.577 111.788C533.949 112.104 533.404 112.564 532.985 113.129C532.567 113.694 532.287 114.35 532.168 115.043C532.048 115.736 532.093 116.447 532.298 117.12L536.092 129.554C536.442 130.694 537.229 131.65 538.282 132.21C539.336 132.77 540.568 132.889 541.709 132.541C542.85 132.193 543.806 131.406 544.367 130.353C544.928 129.301 545.049 128.068 544.702 126.927L540.908 114.493C540.625 113.571 540.054 112.764 539.279 112.19C538.504 111.617 537.565 111.307 536.601 111.306Z" fill="#FDB87D"/>
<path d="M337.5 391.023C336.306 391.023 335.162 391.497 334.318 392.341C333.474 393.185 333 394.33 333 395.523C333 396.717 333.474 397.861 334.318 398.705C335.162 399.549 336.306 400.023 337.5 400.023H350.5C351.693 400.023 352.838 399.549 353.682 398.705C354.526 397.861 355 396.717 355 395.523C355 394.33 354.526 393.185 353.682 392.341C352.838 391.497 351.693 391.023 350.5 391.023H337.5Z" fill="#FDB87D"/>
<path d="M445 358.023H391C390.66 358.023 390.33 358.033 390 358.063C386.472 358.315 383.17 359.893 380.758 362.481C378.347 365.068 377.004 368.472 377 372.009C376.996 375.546 378.332 378.954 380.738 381.546C383.144 384.138 386.443 385.724 389.97 385.983C390.31 386.013 390.65 386.023 391 386.023H445C448.713 386.023 452.274 384.548 454.9 381.923C457.525 379.297 459 375.736 459 372.023C459 368.31 457.525 364.749 454.9 362.124C452.274 359.498 448.713 358.023 445 358.023V358.023Z" fill="#FF8364"/>
<path opacity="0.2" d="M385.56 384.913C394.76 383.733 402 372.123 402 358.023H400C400 371.813 392.82 383.023 384 383.023V384.143L385.56 384.913Z" fill="black"/>
<path opacity="0.2" d="M405 385.023V383.023C413.822 383.023 421 371.808 421 358.023H423C423 372.911 414.925 385.023 405 385.023Z" fill="black"/>
<path opacity="0.2" d="M426 385.023V383.023C434.822 383.023 442 371.808 442 358.023H444C444 372.911 435.925 385.023 426 385.023Z" fill="black"/>
<path d="M543 358.023H489C488.66 358.023 488.33 358.033 488 358.063C484.472 358.315 481.17 359.893 478.758 362.481C476.347 365.068 475.004 368.472 475 372.009C474.996 375.546 476.332 378.954 478.738 381.546C481.144 384.138 484.443 385.724 487.97 385.983C488.31 386.013 488.65 386.023 489 386.023H543C546.713 386.023 550.274 384.548 552.9 381.923C555.525 379.297 557 375.736 557 372.023C557 368.31 555.525 364.749 552.9 362.124C550.274 359.498 546.713 358.023 543 358.023V358.023Z" fill="#FF8364"/>
<path opacity="0.2" d="M483.56 384.913C492.76 383.733 500 372.123 500 358.023H498C498 371.813 490.82 383.023 482 383.023V384.143L483.56 384.913Z" fill="black"/>
<path opacity="0.2" d="M503 385.023V383.023C511.822 383.023 519 371.808 519 358.023H521C521 372.911 512.925 385.023 503 385.023Z" fill="black"/>
<path opacity="0.2" d="M524 385.023V383.023C532.822 383.023 540 371.808 540 358.023H542C542 372.911 533.925 385.023 524 385.023Z" fill="black"/>
<path d="M176.148 602.926V620.988C176.148 620.988 170.71 627.203 164.883 628.951C159.056 630.699 160.222 635.361 160.222 635.361L158.474 642.935C158.474 642.935 151.093 649.539 145.849 651.675C140.605 653.812 131.671 652.064 124.679 646.625C121.727 644.334 122.892 639.447 125.557 634.226C129.029 627.869 133.303 621.984 138.275 616.715C140.831 614.159 142.237 608.877 142.983 604.821C143.534 601.784 143.713 599.43 143.713 599.43L176.148 602.926Z" fill="#4C495A"/>
<path opacity="0.1" d="M176.148 616.405V620.988C176.148 620.988 170.71 627.203 164.883 628.951C159.056 630.699 160.222 635.361 160.222 635.361L158.474 642.935C158.474 642.935 151.093 649.539 145.849 651.675C140.605 653.812 131.671 652.064 124.679 646.625C121.727 644.334 122.892 639.447 125.557 634.226C125.433 639.711 127.056 645.872 134.973 645.654C143.517 645.383 151.751 642.389 158.474 637.109C158.474 637.109 158.279 624.29 167.214 621.377C170.479 620.299 173.511 618.612 176.148 616.405V616.405Z" fill="black"/>
<path d="M247.233 649.15C232.86 652.064 227.422 638.468 227.422 638.468C227.422 638.468 229.17 627.786 224.897 624.678C222.255 622.708 220.069 620.19 218.488 617.298V599.43L235.968 586.999L245.43 595.374L246.067 595.934C246.067 595.934 249.758 608.17 254.225 614.019C257.06 617.733 259.43 625.261 260.976 631.499C261.869 635.089 262.491 638.251 262.77 640.022C263.547 644.877 261.605 646.237 247.233 649.15Z" fill="#4C495A"/>
<path opacity="0.1" d="M247.233 649.15C232.86 652.064 227.422 638.468 227.422 638.468C227.422 638.468 229.17 627.786 224.897 624.678C222.255 622.708 220.069 620.19 218.488 617.298V610.376C221.261 613.305 226.49 618.976 227.616 621.377C229.17 624.678 229.364 636.72 236.551 638.857C243.737 640.993 257.721 642.935 258.886 637.497C259.371 635.43 260.071 633.42 260.976 631.499C261.869 635.089 262.491 638.251 262.77 640.022C263.547 644.877 261.605 646.237 247.233 649.15Z" fill="black"/>
<path opacity="0.1" d="M143.713 599.43L176.148 602.926V612.474C172.489 614.641 167.245 616.941 164.3 614.579C159.95 611.098 147.014 606.678 142.982 604.821C143.534 601.784 143.713 599.43 143.713 599.43Z" fill="black"/>
<path opacity="0.1" d="M246.067 597.487C241.6 595.934 233.637 602.731 223.149 607.004C221.691 607.691 220.099 608.047 218.488 608.045V599.43L235.968 586.999L245.43 595.374C245.576 596.097 245.79 596.804 246.067 597.487Z" fill="black"/>
<path d="M257.526 383.65C257.526 383.65 256.913 386.509 256.035 390.657C254.038 400.096 250.682 416.232 250.146 420.552C249.369 426.767 246.844 438.808 246.844 438.808C241.018 447.937 244.319 459.979 244.319 459.979C245.5 462.749 245.638 465.854 244.708 468.719C243.154 473.574 243.737 473.768 243.737 473.768C243.737 473.768 249.175 479.789 246.65 484.062C244.125 488.335 250.146 495.521 250.146 495.521L248.786 539.027L250.146 568.937C250.146 568.937 245.679 575.346 247.209 578.454C248.74 581.561 247.038 586.611 247.038 586.611C247.038 586.611 247.815 589.136 246.067 590.495C244.319 591.855 246.067 595.934 246.067 595.934C241.6 594.38 233.637 601.178 223.149 605.451C212.661 609.723 216.157 599.624 216.157 599.624C216.157 599.624 208 589.524 209.748 588.359C211.496 587.194 214.409 570.685 214.409 570.685C206.252 559.42 209.748 540.775 209.748 540.775L210.952 497.285C210.952 497.285 209.359 490.277 210.719 487.17C212.079 484.062 207.029 479.207 207.029 479.207C207.029 479.207 208.388 473.38 207.029 471.243C205.669 469.107 205.281 463.28 205.281 463.28C205.281 463.28 201.979 445.024 201.979 439.974C201.979 434.924 197.512 418.61 197.512 418.61C199.066 404.626 195.181 401.13 195.181 401.13C186.247 405.402 192.268 421.717 192.268 428.515C192.268 435.313 188.384 445.801 188.384 445.801C188.384 445.801 186.636 470.467 184.499 475.128C182.363 479.789 181.197 489.889 181.197 489.889C181.197 489.889 184.693 498.046 183.062 502.125C181.43 506.203 183.062 524.072 183.062 524.072C183.062 524.072 181.78 550.292 178.284 558.837C174.788 567.383 178.867 573.404 181.438 577.483C184.002 581.561 183.528 586.223 180.032 588.359C176.536 590.496 177.507 591.661 180.226 594.963C182.945 598.264 180.226 608.17 180.226 608.17C180.226 608.17 169.156 616.91 164.3 613.025C159.445 609.141 143.907 604.091 141.965 602.731C140.022 601.372 140.605 597.487 143.518 594.38C146.432 591.272 144.878 590.884 144.878 590.884C137.109 588.553 141.965 581.367 141.965 581.367C141.965 581.367 149.928 572.821 146.626 568.16C143.324 563.499 143.324 549.903 145.461 547.184C147.597 544.465 145.072 536.696 145.072 536.696L140.434 498.823C140.434 498.823 140.217 490.86 142.742 489.889C145.266 488.918 147.209 486.587 145.266 482.508C143.324 478.43 147.403 469.301 147.403 469.301C149.734 466.194 145.655 452.792 140.799 445.412C135.944 438.032 138.857 416.473 138.857 416.473C138.857 416.473 135.167 411.229 135.167 408.704C135.131 407.083 134.732 405.49 134.002 404.043C132.324 401.378 132.65 395.349 133.38 390.067C134.087 384.955 135.167 380.542 135.167 380.542L257.526 383.65Z" fill="#5F5D7E"/>
<path d="M219.459 163.597L181.197 172.531C181.197 172.531 162.358 156.605 167.019 148.059C168.62 145.122 169.327 140.111 169.567 134.813C169.754 130.672 169.653 126.345 169.474 122.686C169.202 117.395 168.767 113.488 168.767 113.488C168.767 113.488 208 91.3463 206.64 113.488C206.364 117.175 206.45 120.88 206.897 124.55C207.174 127.162 207.936 129.699 209.142 132.032C211.24 135.769 213.827 135.823 213.827 135.823L219.459 163.597Z" fill="#FDC2CC"/>
<path opacity="0.1" d="M206.897 124.55C201.367 128.517 194.657 130.492 187.86 130.153C181.063 129.815 174.582 127.182 169.474 122.686C169.202 117.395 168.767 113.488 168.767 113.488C168.767 113.488 208 91.3463 206.64 113.488C206.364 117.175 206.45 120.88 206.897 124.55V124.55Z" fill="black"/>
<path d="M189.355 129.414C205.981 129.414 219.459 115.936 219.459 99.3093C219.459 82.6832 205.981 69.205 189.355 69.205C172.729 69.205 159.25 82.6832 159.25 99.3093C159.25 115.936 172.729 129.414 189.355 129.414Z" fill="#FDC2CC"/>
<path opacity="0.1" d="M219.459 163.597L181.197 172.531C181.197 172.531 162.358 156.605 167.019 148.059C168.62 145.122 169.327 140.111 169.567 134.813C170.412 139.42 172.886 143.57 176.536 146.505C185.276 152.332 183.917 159.518 183.917 159.518L199.648 158.935C198.677 152.526 204.504 149.03 206.446 148.253C208.388 147.476 207.417 143.98 207.417 143.98L209.142 132.032C211.24 135.769 213.827 135.823 213.827 135.823L219.459 163.597Z" fill="black"/>
<path opacity="0.1" d="M257.526 383.65C257.526 383.65 256.913 386.509 256.035 390.657C251.809 390.432 246.223 390.269 243.737 390.836C239.464 391.807 222.372 392.195 222.372 392.195L180.032 393.695V392.389C175.162 392.429 170.298 392.753 165.465 393.361C158.279 394.332 147.014 392.972 139.828 391.807C137.616 391.49 135.451 390.906 133.38 390.067C134.087 384.955 135.167 380.542 135.167 380.542L257.526 383.65Z" fill="black"/>
<path d="M254.225 260.319C253.611 263.947 254.062 269.96 254.838 275.895C256.012 284.9 257.915 293.725 257.915 293.725C257.915 293.725 265.878 344.223 261.411 350.826C256.944 357.43 261.411 389.476 261.411 389.476C261.411 389.476 248.01 388.311 243.737 389.282C239.464 390.253 222.372 390.642 222.372 390.642L180.032 392.141V390.836C175.162 390.875 170.298 391.199 165.466 391.807C158.279 392.778 147.015 391.418 139.828 390.253C132.642 389.088 129.729 386.757 130.506 385.592C131.283 384.426 129.729 352.574 129.729 352.574L129.535 326.743C129.535 326.743 129.34 308.486 133.807 304.407C135.633 302.745 137.133 296.6 138.275 289.918C139.914 280.246 140.799 269.447 140.799 269.447L111.278 190.399L110.695 188.845C110.695 188.845 119.241 175.638 117.881 169.229C116.522 162.82 125.844 157.187 125.844 157.187C125.844 157.187 143.518 149.418 144.684 147.088C145.849 144.757 158.085 144.175 158.085 144.175C158.085 144.175 165.077 140.484 166.281 138.092C166.574 137.423 167.023 136.834 167.589 136.373C168.155 135.913 168.822 135.594 169.536 135.442C170.359 140.106 172.847 144.313 176.536 147.282C185.276 153.109 183.917 160.295 183.917 160.295L199.648 159.712C198.677 153.303 204.504 149.807 206.446 149.03C208.388 148.253 207.417 144.757 207.417 144.757L209.235 132.179C210.074 130.09 215.963 138.092 215.963 138.092C215.963 138.092 230.918 143.203 231.889 143.592C232.86 143.98 245.485 147.865 245.485 147.865C245.485 147.865 261.022 157.964 261.022 160.489C261.022 163.014 269.568 176.61 269.568 176.61C269.568 176.61 269.467 177.153 269.281 178.148C267.308 188.853 255.646 251.967 254.225 260.319Z" fill="#FDB87D"/>
<path d="M192.074 228.855C192.074 228.855 158.474 219.921 155.172 217.784C151.87 215.648 132.448 228.078 156.143 244.975C156.143 244.975 185.117 250.996 192.868 244.975C200.62 238.955 192.074 228.855 192.074 228.855Z" fill="#FDC2CC"/>
<path opacity="0.1" d="M264.713 175.638L268.791 175.833L280.833 208.073C280.833 208.073 288.019 224.971 289.379 227.69C290.738 230.409 290.156 241.674 289.379 244.975C288.602 248.277 283.552 262.844 283.358 266.534C283.164 270.224 274.035 273.914 264.713 273.332C255.39 272.749 233.637 275.662 233.637 275.662C233.637 275.662 210.406 273.234 196.153 280.518C196.153 280.518 187.024 261.678 187.995 226.524C187.995 226.524 204.116 225.553 208.194 227.107C212.273 228.661 232.083 233.128 234.608 230.797C237.133 228.467 248.592 235.07 248.592 235.07C249.175 233.789 249.477 232.399 249.477 230.991C249.477 229.584 249.175 228.194 248.592 226.913C246.65 222.252 243.348 207.685 247.621 203.024C251.894 198.362 264.713 175.638 264.713 175.638Z" fill="black"/>
<path opacity="0.1" d="M254.838 275.896C245.197 276.548 234.414 277.993 234.414 277.993C234.414 277.993 211.185 275.561 196.929 282.849C196.929 282.849 187.801 264.009 188.772 228.855C188.772 228.855 204.892 227.884 208.971 229.438C213.05 230.992 232.86 235.459 235.385 233.128C237.91 230.797 249.369 237.401 249.369 237.401C249.952 236.12 250.254 234.729 250.254 233.322C250.254 231.915 249.952 230.524 249.369 229.244C247.427 224.582 244.125 210.016 248.398 205.354C252.671 200.693 265.49 177.969 265.49 177.969L269.281 178.148C267.308 188.853 255.646 251.967 254.225 260.319C253.611 263.947 254.062 269.96 254.838 275.896Z" fill="black"/>
<path d="M265.49 176.415L269.568 176.609L281.61 208.85C281.61 208.85 288.796 225.748 290.156 228.467C291.515 231.186 290.933 242.451 290.156 245.752C289.379 249.054 284.329 263.621 284.135 267.311C283.941 271.001 274.812 274.691 265.49 274.109C256.167 273.526 234.414 276.439 234.414 276.439C234.414 276.439 211.183 274.011 196.929 281.295C196.929 281.295 187.801 262.455 188.772 227.301C188.772 227.301 204.892 226.33 208.971 227.884C213.05 229.438 232.86 233.905 235.385 231.574C237.91 229.244 249.369 235.847 249.369 235.847C249.952 234.566 250.254 233.176 250.254 231.768C250.254 230.361 249.952 228.97 249.369 227.69C247.427 223.028 244.125 208.462 248.398 203.801C252.671 199.139 265.49 176.415 265.49 176.415Z" fill="#FDB87D"/>
<path d="M224.456 247.755L229.302 250.756L256.309 207.14L251.462 204.139L224.456 247.755Z" fill="#DFE6F5"/>
<path d="M270.156 201.233C274.929 193.525 274.416 184.562 269.009 181.215C263.603 177.867 255.35 181.402 250.578 189.11C245.805 196.819 246.318 205.781 251.725 209.129C257.132 212.476 265.384 208.941 270.156 201.233Z" fill="#DFE6F5"/>
<path opacity="0.1" d="M267.394 199.523C270.82 193.99 270.451 187.556 266.57 185.153C262.69 182.75 256.766 185.288 253.34 190.821C249.914 196.354 250.283 202.787 254.164 205.19C258.045 207.593 263.968 205.056 267.394 199.523Z" fill="black"/>
<path d="M210.653 270.048L215.499 273.049L232.303 245.91L227.457 242.909L210.653 270.048Z" fill="#53526B"/>
<path d="M182.169 271.972L194.016 268.67C194.016 268.67 252.477 270.224 232.86 246.141C232.86 246.141 222.567 236.236 201.008 244.199C179.449 252.162 173.429 253.133 173.429 253.133L182.169 271.972Z" fill="#FDC2CC"/>
<path opacity="0.1" d="M173.429 170.394C174.716 170.394 175.759 169.351 175.759 168.064C175.759 166.777 174.716 165.733 173.429 165.733C172.141 165.733 171.098 166.777 171.098 168.064C171.098 169.351 172.141 170.394 173.429 170.394Z" fill="black"/>
<path opacity="0.1" d="M213.438 169.035C214.725 169.035 215.769 167.991 215.769 166.704C215.769 165.417 214.725 164.374 213.438 164.374C212.151 164.374 211.108 165.417 211.108 166.704C211.108 167.991 212.151 169.035 213.438 169.035Z" fill="black"/>
<path d="M173.429 169.617C174.716 169.617 175.759 168.574 175.759 167.287C175.759 166 174.716 164.956 173.429 164.956C172.141 164.956 171.098 166 171.098 167.287C171.098 168.574 172.141 169.617 173.429 169.617Z" fill="white"/>
<path opacity="0.1" d="M176.73 202.635C178.018 202.635 179.061 201.592 179.061 200.305C179.061 199.017 178.018 197.974 176.73 197.974C175.443 197.974 174.4 199.017 174.4 200.305C174.4 201.592 175.443 202.635 176.73 202.635Z" fill="black"/>
<path opacity="0.1" d="M214.604 200.305C215.891 200.305 216.934 199.261 216.934 197.974C216.934 196.687 215.891 195.643 214.604 195.643C213.316 195.643 212.273 196.687 212.273 197.974C212.273 199.261 213.316 200.305 214.604 200.305Z" fill="black"/>
<path d="M176.73 201.858C178.018 201.858 179.061 200.815 179.061 199.528C179.061 198.24 178.018 197.197 176.73 197.197C175.443 197.197 174.4 198.24 174.4 199.528C174.4 200.815 175.443 201.858 176.73 201.858Z" fill="white"/>
<path opacity="0.1" d="M213.632 312.772C214.92 312.772 215.963 311.729 215.963 310.441C215.963 309.154 214.92 308.111 213.632 308.111C212.345 308.111 211.302 309.154 211.302 310.441C211.302 311.729 212.345 312.772 213.632 312.772Z" fill="black"/>
<path opacity="0.1" d="M182.959 312.772C184.246 312.772 185.29 311.729 185.29 310.441C185.29 309.154 184.246 308.111 182.959 308.111C181.672 308.111 180.628 309.154 180.628 310.441C180.628 311.729 181.672 312.772 182.959 312.772Z" fill="black"/>
<path d="M213.632 311.995C214.92 311.995 215.963 310.952 215.963 309.664C215.963 308.377 214.92 307.334 213.632 307.334C212.345 307.334 211.302 308.377 211.302 309.664C211.302 310.952 212.345 311.995 213.632 311.995Z" fill="white"/>
<path opacity="0.1" d="M185.29 351.797C186.577 351.797 187.62 350.754 187.62 349.467C187.62 348.179 186.577 347.136 185.29 347.136C184.002 347.136 182.959 348.179 182.959 349.467C182.959 350.754 184.002 351.797 185.29 351.797Z" fill="black"/>
<path opacity="0.1" d="M214.604 349.467C215.891 349.467 216.934 348.423 216.934 347.136C216.934 345.849 215.891 344.805 214.604 344.805C213.316 344.805 212.273 345.849 212.273 347.136C212.273 348.423 213.316 349.467 214.604 349.467Z" fill="black"/>
<path d="M185.29 351.02C186.577 351.02 187.62 349.977 187.62 348.69C187.62 347.403 186.577 346.359 185.29 346.359C184.002 346.359 182.959 347.403 182.959 348.69C182.959 349.977 184.002 351.02 185.29 351.02Z" fill="white"/>
<path d="M182.959 311.995C184.246 311.995 185.29 310.952 185.29 309.664C185.29 308.377 184.246 307.334 182.959 307.334C181.672 307.334 180.628 308.377 180.628 309.664C180.628 310.952 181.672 311.995 182.959 311.995Z" fill="white"/>
<path d="M214.604 348.69C215.891 348.69 216.934 347.646 216.934 346.359C216.934 345.072 215.891 344.028 214.604 344.028C213.316 344.028 212.273 345.072 212.273 346.359C212.273 347.646 213.316 348.69 214.604 348.69Z" fill="white"/>
<path d="M213.438 168.258C214.725 168.258 215.769 167.215 215.769 165.927C215.769 164.64 214.725 163.597 213.438 163.597C212.151 163.597 211.108 164.64 211.108 165.927C211.108 167.215 212.151 168.258 213.438 168.258Z" fill="white"/>
<path d="M214.604 199.528C215.891 199.528 216.934 198.484 216.934 197.197C216.934 195.91 215.891 194.866 214.604 194.866C213.316 194.866 212.273 195.91 212.273 197.197C212.273 198.484 213.316 199.528 214.604 199.528Z" fill="white"/>
<path opacity="0.1" d="M218.1 278.964C218.1 278.964 218.488 332.181 219.653 341.698C219.653 341.698 220.076 281.473 218.1 278.964Z" fill="black"/>
<path opacity="0.1" d="M228.005 303.63C227.204 303.63 243.931 365.975 244.708 370.443C245.485 374.91 232.666 303.63 228.005 303.63Z" fill="black"/>
<path opacity="0.1" d="M241.212 293.531C241.212 294.113 250.535 327.325 255.196 329.073C259.857 330.821 241.212 293.531 241.212 293.531Z" fill="black"/>
<path opacity="0.1" d="M277.92 228.855C277.92 228.855 258.109 229.738 257.526 232.598C256.944 235.459 277.92 228.855 277.92 228.855Z" fill="black"/>
<path opacity="0.1" d="M242.96 482.12C242.96 482.12 228.782 488.141 230.918 488.529C233.055 488.918 242.96 482.12 242.96 482.12Z" fill="black"/>
<path opacity="0.1" d="M213.632 473.186C213.08 471.943 223.149 478.235 223.149 479.012C223.149 479.789 214.409 474.934 213.632 473.186Z" fill="black"/>
<path opacity="0.1" d="M226.839 493.579C226.839 493.579 237.91 493.02 238.687 497.281C239.464 501.542 226.839 493.579 226.839 493.579Z" fill="black"/>
<path opacity="0.1" d="M147.209 493.555C147.209 493.555 159.25 491.2 160.222 493.555C161.193 495.91 147.209 493.555 147.209 493.555Z" fill="black"/>
<path opacity="0.1" d="M151.676 566.8C151.676 566.8 152.465 576.706 149.546 579.036C146.626 581.367 151.676 566.8 151.676 566.8Z" fill="black"/>
<path opacity="0.1" d="M150.205 587.776C154.006 588.165 174.011 584.669 173.817 587.776C173.623 590.884 150.205 587.776 150.205 587.776Z" fill="black"/>
<path opacity="0.1" d="M241.989 575.735C241.989 575.735 235.166 574.686 236.829 579.289L241.989 575.735Z" fill="black"/>
<path opacity="0.1" d="M115.162 188.069H111.472L105.84 208.656C105.84 208.656 103.897 215.842 101.955 217.59C100.013 219.338 103.703 235.264 103.703 235.264C103.703 235.264 101.567 246.529 99.8187 249.443C98.0707 252.356 102.538 259.542 102.538 259.542L111.472 280.518L135.167 286.733C135.167 286.733 176.925 295.861 178.867 297.221C180.809 298.581 182.557 296.638 183.917 284.014C185.276 271.39 188.966 246.918 191.88 245.752C191.88 245.752 168.573 248.277 166.631 247.889C164.689 247.5 155.366 248.083 155.366 248.083C155.366 248.083 143.13 247.306 141.188 248.472C139.246 249.637 143.713 242.83 143.713 242.83C144.53 239.714 144.53 236.439 143.713 233.322C142.353 228.078 141.576 168.646 115.162 188.069Z" fill="black"/>
<path opacity="0.1" d="M191.103 248.083C188.189 249.248 184.499 273.72 183.14 286.345C181.78 298.969 180.032 300.911 178.09 299.552C176.513 298.448 148.677 292.218 138.274 289.918C139.914 280.246 140.799 269.447 140.799 269.447L111.278 190.399H114.385C140.799 170.977 141.576 230.409 142.936 235.653C143.754 238.77 143.754 242.045 142.936 245.162C142.936 245.162 138.469 251.967 140.411 250.802C142.353 249.637 154.589 250.414 154.589 250.414C154.589 250.414 163.912 249.831 165.854 250.219C167.796 250.608 191.103 248.083 191.103 248.083Z" fill="black"/>
<path d="M114.385 188.845H110.695L105.063 209.433C105.063 209.433 103.12 216.619 101.178 218.367C99.236 220.115 102.926 236.041 102.926 236.041C102.926 236.041 100.79 247.306 99.0418 250.219C97.2938 253.133 101.761 260.319 101.761 260.319L110.695 281.295L134.39 287.51C134.39 287.51 176.148 296.638 178.09 297.998C180.032 299.358 181.78 297.415 183.14 284.791C184.499 272.167 188.189 247.695 191.103 246.529C191.103 246.529 167.796 249.054 165.854 248.666C163.912 248.277 154.589 248.86 154.589 248.86C154.589 248.86 142.353 248.083 140.411 249.248C138.469 250.414 142.936 243.607 142.936 243.607C143.754 240.491 143.754 237.216 142.936 234.099C141.576 228.855 140.799 169.423 114.385 188.845Z" fill="#FDB87D"/>
<path opacity="0.1" d="M127.01 259.154C127.01 259.154 116.328 279.353 114.385 277.022C112.443 274.691 127.01 259.154 127.01 259.154Z" fill="black"/>
<path opacity="0.1" d="M125.262 237.595C126.039 237.789 139.634 240.49 139.828 241.664C140.023 242.839 125.262 237.595 125.262 237.595Z" fill="black"/>
<path opacity="0.1" d="M219.545 95.3162C219.122 95.4647 218.762 95.7506 218.521 96.128C218.28 96.5054 218.173 96.9526 218.216 97.3982C217.424 98.0974 216.313 97.2739 215.668 96.3805C215.015 95.4948 214.277 94.3994 213.291 94.5237C212.822 94.6732 212.367 94.863 211.931 95.0909C210.377 95.588 209.064 93.7624 208.194 92.162C206.679 89.3575 205.164 86.5555 203.649 83.7561C200.612 85.5196 197.023 83.6706 194.008 81.8449C190.994 80.0192 187.405 78.1625 184.359 79.9261C179.892 82.5053 179.729 91.1055 175.099 93.2263C173.607 93.91 171.875 93.7623 170.492 94.7024C169.125 95.6347 168.387 97.4293 167.773 99.1462C167.546 100.124 167.012 101.003 166.25 101.656C165.766 101.909 165.227 102.039 164.681 102.036C163.308 102.27 161.897 102.071 160.641 101.469C159.983 101.056 159.486 100.43 159.231 99.6951C158.977 98.9606 158.981 98.1612 159.243 97.4293C159.279 97.3517 159.321 97.2765 159.367 97.204C159.865 96.6024 160.311 95.9605 160.703 95.2851C161.169 94.0498 160.501 92.6126 160.649 91.2763C160.89 88.9923 163.306 87.7881 163.717 85.5429C163.888 84.665 163.71 83.725 163.873 82.8394C163.896 82.7233 163.927 82.6091 163.966 82.4976L162.544 83.4764C164.137 81.6196 164.937 79.0404 166.103 76.7874C167.397 74.3206 169.178 72.1421 171.339 70.3834C173.5 68.6248 175.994 67.3227 178.673 66.5558C183.738 65.0798 189.091 65.4837 194.203 66.7345C199.064 67.9455 203.72 69.8642 208.023 72.4291C209.561 73.2535 210.926 74.3635 212.048 75.6998C212.987 77.0852 213.786 78.5608 214.433 80.1047C215.94 83.2278 220.057 86.1178 216.779 86.5528C214.052 86.918 216.538 88.8292 217.968 90.1188C218.29 90.3716 218.568 90.6761 218.791 91.0199C219.028 91.5113 219.137 92.0548 219.107 92.5996C219.077 93.1445 218.91 93.6728 218.62 94.1352C218.068 94.8345 220.306 94.9743 219.545 95.3162Z" fill="black"/>
<path d="M219.545 94.5393C219.122 94.6879 218.762 94.9737 218.521 95.3511C218.28 95.7285 218.173 96.1757 218.216 96.6213C217.424 97.3205 216.313 96.497 215.668 95.6036C215.015 94.7179 214.277 93.6226 213.291 93.7468C212.822 93.8963 212.367 94.0861 211.931 94.314C210.377 94.8112 209.064 92.9855 208.194 91.3851C206.679 88.5806 205.164 85.7786 203.649 82.9792C200.612 84.7428 197.023 82.8938 194.008 81.0681C190.994 79.2423 187.405 77.3856 184.359 79.1492C179.892 81.7284 179.729 90.3286 175.099 92.4494C173.607 93.1331 171.875 92.9855 170.492 93.9255C169.125 94.8578 168.387 96.6524 167.773 98.3693C167.546 99.3467 167.012 100.226 166.25 100.879C165.766 101.132 165.227 101.263 164.681 101.259C163.308 101.493 161.897 101.294 160.641 100.692C159.983 100.279 159.486 99.6528 159.231 98.9183C158.977 98.1837 158.981 97.3843 159.243 96.6524C159.279 96.5748 159.321 96.4996 159.367 96.4271C159.865 95.8255 160.311 95.1836 160.703 94.5082C161.169 93.273 160.501 91.8357 160.649 90.4995C160.89 88.2155 163.306 87.0112 163.717 84.766C163.888 83.8882 163.71 82.9481 163.873 82.0625C163.896 81.9464 163.927 81.8322 163.966 81.7207L162.544 82.6995C164.137 80.8428 164.937 78.2635 166.103 76.0105C167.397 73.5438 169.178 71.3652 171.339 69.6065C173.5 67.8479 175.994 66.5458 178.673 65.7789C183.738 64.3029 189.091 64.7068 194.203 65.9576C199.064 67.1686 203.72 69.0873 208.023 71.6522C209.561 72.4766 210.926 73.5867 212.048 74.9229C212.987 76.3083 213.786 77.7839 214.433 79.3278C215.94 82.4509 220.057 85.3409 216.779 85.776C214.052 86.1411 216.538 88.0523 217.968 89.3419C218.29 89.5947 218.568 89.8992 218.791 90.2431C219.028 90.7344 219.137 91.2779 219.107 91.8228C219.077 92.3676 218.91 92.8959 218.62 93.3584C218.068 94.0576 220.306 94.1974 219.545 94.5393Z" fill="#865A61"/>
<path opacity="0.1" d="M217.967 89.3419L217.657 92.6126C217.657 92.6126 185.059 51.2978 159.701 97.9498C159.701 97.9498 159.577 97.3827 159.367 96.4271C159.865 95.8255 160.312 95.1836 160.703 94.5082C161.169 93.273 160.501 91.8357 160.649 90.4995C160.89 88.2155 163.306 87.0112 163.718 84.766C163.888 83.8882 163.71 82.9481 163.873 82.0625C163.896 81.9464 163.927 81.8322 163.966 81.7207L162.544 82.6995C164.137 80.8428 164.937 78.2635 166.103 76.0105C167.397 73.5438 169.179 71.3652 171.339 69.6065C173.5 67.8479 175.994 66.5458 178.673 65.7789C183.738 64.3029 189.091 64.7068 194.203 65.9576C199.064 67.1686 203.72 69.0873 208.023 71.6522C209.561 72.4766 210.926 73.5867 212.048 74.9229C212.987 76.3083 213.786 77.7839 214.433 79.3278C215.94 82.4509 220.057 85.3409 216.779 85.776C214.052 86.1411 216.538 88.0523 217.967 89.3419Z" fill="black"/>
<g opacity="0.1">
<path opacity="0.1" d="M218.771 94.1161C218.611 94.2968 218.494 94.5121 218.43 94.7453C218.365 94.9785 218.356 95.2233 218.402 95.4608C217.609 96.16 216.498 95.3365 215.854 94.4431C215.201 93.5574 214.463 92.462 213.476 92.5863C213.008 92.7358 212.553 92.9256 212.117 93.1535C210.563 93.6506 209.25 91.825 208.38 90.2246C206.865 87.42 205.35 84.6181 203.835 81.8187C200.798 83.5822 197.208 81.7332 194.194 79.9075C191.18 78.0818 187.59 76.2251 184.545 77.9886C180.078 80.5679 179.915 89.168 175.285 91.2889C173.793 91.9726 172.061 91.8249 170.678 92.765C169.31 93.6972 168.572 95.4918 167.959 97.2088C167.731 98.1861 167.198 99.0653 166.436 99.7181C165.952 99.9713 165.413 100.102 164.867 100.099C163.494 100.332 162.082 100.134 160.827 99.5317C160.074 99.0326 159.535 98.2712 159.313 97.396C159.159 98.092 159.221 98.8185 159.492 99.478C159.762 100.137 160.228 100.698 160.827 101.085C162.082 101.688 163.494 101.886 164.867 101.653C165.413 101.656 165.952 101.525 166.436 101.272C167.198 100.619 167.731 99.7399 167.959 98.7625C168.572 97.0456 169.31 95.251 170.678 94.3188C172.06 93.3787 173.793 93.5263 175.285 92.8427C179.915 90.7218 180.078 82.1217 184.545 79.5424C187.59 77.7789 191.18 79.6356 194.194 81.4613C197.208 83.2869 200.798 85.136 203.835 83.3724C205.35 86.1692 206.865 88.9712 208.38 91.7783C209.25 93.3787 210.563 95.2044 212.117 94.7072C212.553 94.4793 213.008 94.2896 213.476 94.1401C214.463 94.0158 215.201 95.1112 215.854 95.9968C216.498 96.8903 217.609 97.7138 218.402 97.0146C218.359 96.569 218.466 96.1217 218.707 95.7443C218.948 95.3669 219.308 95.0811 219.73 94.9325C220.336 94.6607 219.048 94.5156 218.771 94.1161Z" fill="black"/>
<path opacity="0.1" d="M216.231 86.3544C216.466 86.2599 216.713 86.1976 216.965 86.1692C218.41 85.9774 218.416 85.3075 217.844 84.3517C217.572 84.4985 217.272 84.5883 216.965 84.6154C215.405 84.8243 215.553 85.5394 216.231 86.3544Z" fill="black"/>
<path opacity="0.1" d="M219.207 92.8619C219.315 92.361 219.313 91.8424 219.199 91.3427C219.13 91.6524 218.996 91.9439 218.806 92.1979C218.562 92.5063 218.862 92.7058 219.207 92.8619Z" fill="black"/>
<path opacity="0.1" d="M160.879 90.624C160.863 90.7128 160.844 90.8005 160.835 90.8927C160.803 91.5923 160.854 92.2933 160.986 92.981C161.078 92.1947 161.042 91.3988 160.879 90.624V90.624Z" fill="black"/>
<path opacity="0.1" d="M164.034 81.1455C163.668 81.8382 163.231 82.4908 162.73 83.0928L163.984 82.2294C163.978 81.8675 163.994 81.5055 164.034 81.1455V81.1455Z" fill="black"/>
</g>
<path d="M159.699 97.1729C159.699 97.1729 155.012 76.2174 156.503 72.8566C156.503 72.8566 152.455 64.5534 152.455 62.5765C152.258 59.2776 151.232 56.0816 149.472 53.2849C147.341 49.9241 144.997 34.3063 157.782 30.5501C170.566 26.7939 180.368 23.4331 181.859 20.8631C183.351 18.2931 205.298 19.8746 211.264 29.7593C217.23 39.644 221.066 37.6671 221.066 37.6671C221.066 37.6671 230.228 43.4002 230.228 48.5402C230.228 53.6803 227.458 56.2503 230.228 57.4365C232.998 58.6226 230.867 79.9735 218.722 80.5666L217.656 91.8352C217.656 91.8352 185.056 50.5172 159.699 97.1729Z" fill="#FDB87D"/>
<path opacity="0.1" d="M161.095 34.6336C161.095 34.6336 158.279 51.1424 163.426 56.6777L161.095 34.6336Z" fill="black"/>
<path opacity="0.1" d="M174.303 30.8463C174.303 30.8463 167.116 48.5205 168.864 51.9193L174.303 30.8463Z" fill="black"/>
<path opacity="0.1" d="M180.518 25.2139C180.518 25.2139 175.662 48.2291 177.993 50.0742L180.518 25.2139Z" fill="black"/>
<path opacity="0.1" d="M188.869 31.429C188.869 31.429 182.848 46.1898 185.276 48.2291L188.869 31.429Z" fill="black"/>
<path opacity="0.1" d="M200.231 33.1769C200.231 33.1769 193.142 45.2187 194.599 47.3551L200.231 33.1769Z" fill="black"/>
<path opacity="0.1" d="M214.798 44.9274C214.798 44.9274 207.223 46.9667 208.777 49.3945L214.798 44.9274Z" fill="black"/>
<path opacity="0.1" d="M221.984 57.4547C221.984 57.4547 215.186 60.7564 216.449 62.5044L221.984 57.4547Z" fill="black"/>
<path opacity="0.1" d="M156.503 72.8566C156.503 72.8566 199.922 55.2204 218.722 80.5666C218.722 80.5667 195.902 61.1646 156.503 72.8566Z" fill="black"/>
<path d="M140.813 217.768L146.863 211.648L163.968 228.556L157.918 234.677L142.187 219.127L140.813 217.768Z" fill="#53526B"/>
<path d="M101.123 178.534C101.123 178.534 127.603 180.787 152.247 208.526L141.976 218.917L101.123 178.534Z" fill="#DFE6F5"/>
<path d="M180.546 228.132C180.546 228.132 155.096 218.855 152.595 216.636C150.094 214.418 135.383 227.326 153.331 244.873C153.331 244.873 175.277 251.125 181.148 244.873C187.019 238.62 180.546 228.132 180.546 228.132Z" fill="#FDC2CC"/>
<path d="M441.048 223.58C433.971 219.756 425.222 223.926 421.695 230.694C417.405 238.926 420.961 248.822 425.963 255.858C431.161 263.17 438.216 269.205 441.686 277.654C445.005 285.605 445.398 294.476 442.796 302.69C440.194 310.905 434.765 317.931 427.473 322.521C424.218 324.58 427.225 329.774 430.501 327.702C437.653 323.234 443.311 316.736 446.753 309.037C450.196 301.339 451.265 292.79 449.826 284.48C449.096 280.171 447.703 276.001 445.698 272.118C443.523 268.155 440.904 264.453 437.89 261.083C432.685 254.923 426.132 248.131 425.805 239.56C425.746 238.448 425.823 237.333 426.036 236.24C426.192 235.477 426.424 234.731 426.729 234.014C427.456 232.474 428.536 231.126 429.881 230.081C431.127 229.086 432.602 228.419 434.172 228.138C435.488 227.943 436.832 228.16 438.02 228.761C441.417 230.596 444.45 225.418 441.048 223.58V223.58Z" fill="white"/>
<path d="M531.331 259.874C528.318 258.905 525.098 258.772 522.015 259.489C518.932 260.205 516.101 261.745 513.824 263.943C512.647 265.153 511.775 266.627 511.28 268.241C510.786 269.856 510.683 271.565 510.98 273.227C511.552 276.863 513.847 280.092 516.338 282.695C521.211 287.787 528.031 291.079 532.117 296.925C533.929 299.416 535.066 302.334 535.417 305.394C535.627 308.143 535.123 310.901 533.954 313.398C530.905 319.594 524.854 323.808 518.473 326.521C516.981 327.155 516.653 329.353 517.397 330.625C517.812 331.297 518.47 331.783 519.234 331.983C519.998 332.183 520.809 332.083 521.501 331.702C533.245 326.709 544.11 315.527 540.871 301.789C539.167 294.563 533.945 289.463 528.321 285.029C525.528 282.981 522.89 280.73 520.429 278.294C518.484 276.228 516.464 273.408 516.821 270.609C516.964 269.635 517.441 268.742 518.169 268.08C519.052 267.273 520.055 266.607 521.141 266.105C522.473 265.467 523.919 265.099 525.394 265.022C526.87 264.945 528.345 265.162 529.736 265.659C530.503 265.863 531.32 265.758 532.01 265.366C532.7 264.974 533.209 264.327 533.427 263.564C533.622 262.797 533.513 261.985 533.122 261.297C532.732 260.609 532.09 260.099 531.331 259.874V259.874Z" fill="white"/>
<path d="M485.655 174.524C483.867 172.997 481.61 172.128 479.26 172.062C477.031 172.103 474.864 172.804 473.032 174.075C468.895 177.081 465.968 181.466 464.779 186.44C461.748 198.053 465.702 210.57 471.197 220.798C473.975 225.969 477.21 230.877 480.007 236.037C482.703 240.972 484.773 246.225 486.168 251.673C489.015 262.843 489.269 274.517 486.911 285.8C484.51 297.032 479.459 308.153 470.866 315.902C470.303 316.464 469.987 317.228 469.987 318.023C469.987 318.819 470.303 319.582 470.866 320.145C471.428 320.707 472.191 321.023 472.987 321.023C473.783 321.023 474.546 320.707 475.108 320.145C482.735 313.267 487.836 303.832 490.915 294.13C494.312 283.173 495.306 271.612 493.828 260.236C493.16 254.57 491.87 248.996 489.982 243.613C487.936 238.191 485.38 232.975 482.35 228.034C476.71 218.499 470.707 208.856 469.891 197.503C469.489 191.92 470.188 186.1 473.642 181.611C473.453 181.856 473.793 181.432 473.795 181.43C474.004 181.179 474.221 180.935 474.446 180.698C474.874 180.238 475.335 179.809 475.824 179.415C475.72 179.497 475.455 179.674 475.938 179.339C476.179 179.173 476.424 179.013 476.676 178.865C476.881 178.744 477.092 178.637 477.302 178.526C477.427 178.462 477.553 178.402 477.681 178.346C477.389 178.472 477.406 178.473 477.731 178.349C477.965 178.276 479.128 178.025 478.483 178.106C478.698 178.081 478.914 178.066 479.131 178.064C479.222 178.062 480.032 178.104 479.636 178.061C479.174 178.01 480.002 178.143 480.008 178.144C480.267 178.207 480.521 178.288 480.769 178.385C480.145 178.136 481.793 179.063 481.413 178.767C481.987 179.306 482.746 179.607 483.534 179.607C484.322 179.607 485.081 179.306 485.655 178.767C486.69 177.732 486.942 175.524 485.655 174.524L485.655 174.524Z" fill="white"/>
</g>
<defs>
<clipPath id="clip0">
<rect width="722.782" height="670.023" fill="white"/>
</clipPath>
</defs>
</svg>
