<svg width="240" height="240" viewBox="0 0 240 240" fill="none" xmlns="http://www.w3.org/2000/svg">
<path fill-rule="evenodd" clip-rule="evenodd" d="M0 73.6532C0 0.31323 91.73 -15.9968 119.99 40.9532C148.29 -16.0668 239.99 0.38323 239.99 73.6532C239.99 118.936 201.566 150.244 167.519 177.985C146.904 194.782 127.895 210.271 119.99 226.763C112.085 210.272 93.0776 194.783 72.4652 177.986C38.421 150.244 0 118.936 0 73.6532ZM157.393 94.2635C158.185 94.2691 158.999 94.2749 159.836 94.2693C166.418 94.2256 168.437 90.8151 170.314 87.6452C170.497 87.3358 170.679 87.0288 170.864 86.7273L143.222 65.1333C142.971 65.394 142.711 65.6548 142.448 65.9191C139.896 68.483 137.024 71.3682 138.482 77.5473C138.676 78.3743 138.876 79.1771 139.072 79.9593C140.537 85.8282 141.713 90.5389 137.732 95.6373L124.094 112.659L127.904 117.519L142.448 99.3633C146.489 94.1864 151.3 94.2204 157.393 94.2635ZM152.21 168.189C153.596 169.959 155.678 169.287 156.422 168.705C157.73 167.685 157.964 165.801 156.944 164.493L58.8619 39.4293C59.3059 49.1433 73.8799 83.6913 91.8559 114.495L102.89 105.873L152.21 168.189ZM83.0539 168.639C84.3799 169.671 86.2699 169.443 87.2899 168.141L116.126 132.231L112.292 127.407L82.5559 164.439C81.5359 165.747 81.7459 167.607 83.0539 168.639ZM174.098 81.6573L193.076 50.7813L197.27 54.0573C197.27 54.0573 181.97 80.2173 173.882 93.2673C171.008 97.8933 165.326 100.233 159.878 100.269C158.84 100.275 157.892 100.269 157.022 100.263C151.804 100.226 149.398 100.209 147.176 103.053L131.714 122.361C140.632 133.719 148.697 144.104 154.744 151.89C157.514 155.456 159.861 158.477 161.672 160.797C164.732 164.715 164.036 170.373 160.118 173.433C158.396 174.783 156.032 175.497 153.674 175.287C151.418 175.089 149.168 174.039 147.488 171.879L119.954 137.043L92.0179 171.831C90.2479 174.099 87.6019 175.287 84.9259 175.287C82.9819 175.287 81.0199 174.657 79.3639 173.367C75.4339 170.295 74.7679 164.661 77.8279 160.749L108.458 122.589L101.846 114.279L90.1879 123.393C71.2399 92.4273 53.3299 51.7653 53.3299 37.2753C53.3299 37.2688 53.3291 37.2534 53.3278 37.2298C53.2978 36.6648 53.018 31.4013 57.7639 31.4013C59.2339 31.4013 60.7159 32.0973 61.8019 33.4653C64.9339 37.4073 93.7639 74.0613 120.29 107.823L133.004 91.9413C135.181 89.1548 134.59 86.7836 133.336 81.7553C133.121 80.8938 132.887 79.9543 132.644 78.9213C131.414 73.6953 132.374 67.7973 136.07 63.9213C146.636 52.8573 168.128 31.2873 168.128 31.2873L172.418 34.6593L147.44 60.8133L153.542 65.5833L175.73 37.2333L180.464 40.9233L158.282 69.2853L163.028 72.9933L185.192 44.6193L189.92 48.3153L167.768 76.6953L174.098 81.6573Z" fill="white"/>
</svg>
